<svg height="15" viewBox="0 0 15 15" width="15" xmlns="http://www.w3.org/2000/svg"><g fill="none"><path d="m0 0h15v15h-15z"/><g stroke="#000" stroke-linecap="round" stroke-linejoin="bevel"><path d="m10.754 10.392a2.417 2.417 0 0 0 -2.4-.1 2.418 2.418 0 0 0 -1.109 2.13h-2.491a2.418 2.418 0 0 0 -1.109-2.13 2.417 2.417 0 0 0 -2.4.1l-1.245-2.158a2.411 2.411 0 0 0 1.28-2.025 2.411 2.411 0 0 0 -1.28-2.026l1.246-2.158a2.418 2.418 0 0 0 2.4.1 2.418 2.418 0 0 0 1.108-2.125h2.492a2.417 2.417 0 0 0 1.109 2.13 2.418 2.418 0 0 0 2.4-.1l1.245 2.153a2.411 2.411 0 0 0 -1.28 2.025 2.411 2.411 0 0 0 1.28 2.026z" transform="translate(1.501 1.291)"/><path d="m20.651 20.116a1.868 1.868 0 1 0 1.868 1.868 1.871 1.871 0 0 0 -1.868-1.868" transform="translate(-13.151 -14.484)"/></g></g></svg>